<?xml version="1.0" encoding="utf-8"?><svg xmlns="http://www.w3.org/2000/svg" width="250" height="250" preserveAspectRatio="xMidYMid" xmlns:xlink="http://www.w3.org/1999/xlink" style="display:block;animation-play-state:paused" ><style type="text/css" style="animation-play-state:paused" >text {
    text-anchor: middle; font-size: 80px; opacity: 0;
  }</style>


<g style="transform-origin:125px 125px;transform:matrix(1, 0, 0, 1, 0, 0);animation-play-state:paused" ><g transform="translate(125,125)" style="transform:matrix(1, 0, 0, 1, 125, 125);animation-play-state:paused" ><g transform="translate(0,0)" style="transform:matrix(1, 0, 0, 1, 0, 0);animation-play-state:paused" ><g class="path" style="transform-origin:-54.455px -3.9074px;animation-timing-function:linear;animation-play-state:paused;animation-name:static-7f3e6c80-c232-4130-bf95-a7109ddea3ab;animation-iteration-count:infinite;animation-fill-mode:forwards;animation-duration:1s;animation-delay:-0.495s" ><path d="M23.75 0L19.38 0L19.38 0Q17.19 0 15.25-0.82L15.25-0.82L15.25-0.82Q13.32-1.64 11.89-3.09L11.89-3.09L11.89-3.09Q10.47-4.53 9.63-6.45L9.63-6.45L9.63-6.45Q8.79-8.36 8.79-10.55L8.79-10.55L8.79-35.43L1.60-35.43L1.60-40L8.79-40L8.79-49.61L13.59-50.39L13.59-40L23.75-40L23.75-35.43L13.59-35.43L13.59-10.31L13.59-10.31Q13.59-9.10 14.04-8.07L14.04-8.07L14.04-8.07Q14.49-7.03 15.27-6.25L15.27-6.25L15.27-6.25Q16.05-5.47 17.11-5.02L17.11-5.02L17.11-5.02Q18.16-4.57 19.38-4.57L19.38-4.57L23.75-4.57L23.75 0" fill="#1b0629" stroke="none" stroke-width="none" transform="translate(-67.12997150421143,21.287600173950196)" style="transform:matrix(1, 0, 0, 1, -67.13, 21.2876);fill:rgb(27, 6, 41);animation-play-state:paused" ></path></g>
<g class="path" style="transform-origin:-30.43px -6.7224px;animation-timing-function:linear;animation-play-state:paused;animation-name:static-7f3e6c80-c232-4130-bf95-a7109ddea3ab;animation-iteration-count:infinite;animation-fill-mode:forwards;animation-duration:1s;animation-delay:-0.33s" ><path d="M39.22 0L34.18 0L34.18-56.02L39.22-56.02L39.22 0" fill="#1b0629" stroke="none" stroke-width="none" transform="translate(-67.12997150421143,21.287600173950196)" style="transform:matrix(1, 0, 0, 1, -67.13, 21.2876);fill:rgb(133, 15, 178);animation-play-state:paused" ></path></g>
<g class="path" style="transform-origin:4.66502px -6.7224px;animation-timing-function:linear;animation-play-state:paused;animation-name:static-7f3e6c80-c232-4130-bf95-a7109ddea3ab;animation-iteration-count:infinite;animation-fill-mode:forwards;animation-duration:1s;animation-delay:-0.165s" ><path d="M91.56 0L86.52 0L86.52-38.40L86.17-36.02L73.16 0L70.51 0L57.38-36.02L57.07-38.40L57.07 0L52.03 0L52.03-56.02L54.65-56.02L71.64-10.08L71.80-8.01L71.95-10.08L88.91-56.02L91.56-56.02L91.56 0" fill="#1b0629" stroke="none" stroke-width="none" transform="translate(-67.12997150421143,21.287600173950196)" style="transform:matrix(1, 0, 0, 1, -67.13, 21.2876);fill:rgb(27, 6, 41);animation-play-state:paused" ></path></g>
<g class="path" style="transform-origin:52.97px -6.7224px;animation-timing-function:linear;animation-play-state:paused;animation-name:static-7f3e6c80-c232-4130-bf95-a7109ddea3ab;animation-iteration-count:infinite;animation-fill-mode:forwards;animation-duration:1s" ><path d="M135.86 0L104.34 0L104.34-56.02L135.86-56.02L135.86-51.21L109.38-51.21L109.38-30.39L130.82-30.39L130.82-25.59L109.38-25.59L109.38-4.80L135.86-4.80L135.86 0" fill="#1b0629" stroke="none" stroke-width="none" transform="translate(-67.12997150421143,21.287600173950196)" style="transform:matrix(1, 0, 0, 1, -67.13, 21.2876);fill:rgb(133, 15, 178);animation-play-state:paused" ></path></g></g></g></g></svg>